<svg width="72" height="72" viewBox="0 0 72 72" fill="none" xmlns="http://www.w3.org/2000/svg">
<g clip-path="url(#clip0_198_1605)">
<path d="M0 36C0 6.354 6.354 0 36 0C65.646 0 72 6.354 72 36C72 65.646 65.646 72 36 72C6.354 72 0 65.646 0 36Z" fill="url(#paint0_linear_198_1605)"/>
<path d="M35.3349 10.204C36.4114 9.3671 37.9521 9.1854 39.1787 9.98914C41.3135 11.3881 43.8467 13.6778 44.4189 17.077C44.9978 20.5183 43.5089 24.7082 38.499 29.7557L36.9248 28.5497C38.1006 26.5255 39.3048 23.5429 39.455 20.7694C39.5296 19.3928 39.3416 18.1198 38.8134 17.0477C38.294 15.9937 37.4161 15.0712 35.9912 14.4149C35.1845 14.0434 34.6706 13.2966 34.5146 12.5272C34.3564 11.7457 34.5516 10.8131 35.3349 10.204Z" fill="url(#paint1_linear_198_1605)"/>
<path d="M47.2871 17.9173C50.4678 16.8554 53.5239 17.9531 55.6406 19.0716C56.8711 19.7219 57.4118 21.1025 57.1553 22.3763C56.9768 23.2622 56.3037 23.8096 55.6064 24.0081C54.9209 24.2032 54.1079 24.0993 53.4697 23.6048C52.3003 22.6986 51.1274 22.3825 49.9805 22.4369C48.8099 22.4924 47.602 22.9389 46.4111 23.6654C44.0154 25.127 41.892 27.5985 40.6143 29.5687L38.8291 28.6986C41.087 22.1399 44.0761 18.9896 47.2871 17.9173Z" fill="url(#paint2_linear_198_1605)"/>
<path d="M48.8852 8.85478C49.0554 8.87273 49.2259 8.90753 49.394 8.96122C49.478 8.98806 49.5614 9.01983 49.644 9.05595C51.0091 9.65279 51.5806 11.2837 50.8862 12.6018L40.6557 32.0198C40.5779 32.1675 40.4766 32.2951 40.3608 32.4036C40.3487 32.415 40.3371 32.4269 40.3247 32.4378C40.307 32.4532 40.2883 32.4672 40.27 32.4817C40.2523 32.4958 40.2345 32.5096 40.2163 32.5227C40.1999 32.5345 40.1833 32.5458 40.1665 32.5569C40.1495 32.5681 40.133 32.5797 40.1157 32.5901C40.0905 32.6052 40.0645 32.6186 40.0385 32.6321C40.0281 32.6376 40.0179 32.6435 40.0073 32.6487C39.9803 32.662 39.953 32.6743 39.9252 32.6858C39.9132 32.6908 39.9012 32.6958 39.8891 32.7005C39.8608 32.7115 39.8322 32.7216 39.8032 32.7308C39.7906 32.7347 39.7778 32.7378 39.7651 32.7415C39.7418 32.7482 39.7184 32.7545 39.6948 32.7601C39.6721 32.7654 39.6494 32.7705 39.6264 32.7747C39.6063 32.7784 39.5862 32.7816 39.5659 32.7845C39.5435 32.7876 39.5211 32.7901 39.4985 32.7923C39.4774 32.7943 39.4563 32.7961 39.435 32.7972C39.4129 32.7983 39.3908 32.799 39.3686 32.7991C39.3491 32.7992 39.3296 32.7998 39.31 32.7991C39.2862 32.7983 39.2626 32.7953 39.2387 32.7933C39.2146 32.7912 39.1905 32.7897 39.1665 32.7864C39.1556 32.785 39.145 32.7823 39.1342 32.7806C39.1037 32.7757 39.0729 32.7718 39.0424 32.7649C39.0237 32.7607 39.0055 32.7543 38.9868 32.7493C38.9193 32.7313 38.8515 32.7102 38.7856 32.6819C38.0541 32.3682 37.7077 31.5272 38.0063 30.7893L46.2387 10.4436C46.679 9.35586 47.7787 8.7379 48.8852 8.85478Z" fill="url(#paint3_linear_198_1605)"/>
<path d="M51.4604 29.6304C52.6269 30.3484 53.4495 31.4681 53.7495 32.7463C54.0405 34.0322 53.7794 35.3697 53.0234 36.4661L45.6032 47.2615C45.4735 47.4491 45.3056 47.6106 45.109 47.7366C44.9124 47.8626 44.691 47.9507 44.4575 47.9959C44.224 48.041 43.9829 48.0423 43.748 47.9997C43.5132 47.957 43.2891 47.8713 43.0887 47.7474C42.8881 47.6237 42.7151 47.4642 42.5795 47.2781C42.4438 47.0919 42.3484 46.8827 42.2984 46.6625C42.2484 46.4423 42.2448 46.2153 42.288 45.9946C42.3312 45.7739 42.4202 45.5638 42.5501 45.3762L49.9703 34.5808C50.0837 34.4151 50.1607 34.2295 50.1968 34.0349C50.2329 33.8402 50.2274 33.6404 50.1804 33.4471C50.0971 33.0709 49.8679 32.7363 49.5377 32.5087L43.9024 29.081L45.1216 26.8032C45.257 26.6188 45.4634 26.4915 45.6976 26.4478C45.9318 26.4041 46.1756 26.4475 46.3782 26.5688L51.4604 29.6304Z" fill="url(#paint4_linear_198_1605)"/>
<path d="M41.2517 18.6546C42.5867 18.6027 43.8381 18.8805 44.9323 19.4729L45.3366 19.7112C47.317 20.9719 48.6031 23.2639 48.9353 26.1516C49.2894 29.2322 48.529 32.7392 46.82 35.9007L46.819 35.9016C45.4776 38.3827 43.3345 41.2233 41.0456 43.9641C38.7166 46.7529 36.0753 49.6274 33.6091 52.2044C31.1382 54.7862 28.8155 57.0979 27.112 58.762C26.2599 59.5944 25.5605 60.2669 25.0729 60.7327C24.8292 60.9656 24.6375 61.1479 24.5065 61.2718C24.4743 61.3023 24.4455 61.3294 24.4206 61.3528C23.7961 61.9991 23.0134 62.3398 22.3249 62.2122C21.3712 62.035 20.8527 61.009 21.0759 59.7405L23.277 59.5149C21.1947 59.7285 21.0819 59.7393 21.0759 59.7395L21.0798 59.719C21.082 59.7067 21.0855 59.6891 21.0895 59.6663C21.0979 59.6197 21.1097 59.5507 21.1257 59.4622C21.1577 59.2849 21.2049 59.0258 21.2663 58.6946C21.3892 58.0318 21.5693 57.0784 21.7995 55.9095C22.2596 53.5736 22.9216 50.3655 23.7302 46.8841C24.5372 43.4091 25.4987 39.6237 26.5593 36.1448C27.6019 32.725 28.8074 29.3723 30.152 26.885L30.4792 26.305C31.2642 24.965 32.2028 23.7338 33.2536 22.6663C34.4542 21.4467 35.7779 20.4639 37.1501 19.7757C38.5225 19.0874 39.9167 18.7065 41.2517 18.6546Z" fill="url(#paint5_linear_198_1605)"/>
<mask id="mask0_198_1605" style="mask-type:alpha" maskUnits="userSpaceOnUse" x="21" y="18" width="29" height="45">
<path d="M41.2517 18.6546C42.5867 18.6027 43.8381 18.8805 44.9323 19.4729L45.3366 19.7112C47.317 20.9719 48.6031 23.2639 48.9353 26.1516C49.2894 29.2322 48.529 32.7392 46.82 35.9007L46.819 35.9016C45.4776 38.3827 43.3345 41.2233 41.0456 43.9641C38.7166 46.7529 36.0753 49.6274 33.6091 52.2044C31.1382 54.7862 28.8155 57.0979 27.112 58.762C26.2599 59.5944 25.5605 60.2669 25.0729 60.7327C24.8292 60.9656 24.6375 61.1479 24.5065 61.2718C24.4743 61.3023 24.4455 61.3294 24.4206 61.3528C23.7961 61.9991 23.0134 62.3398 22.3249 62.2122C21.3712 62.035 20.8527 61.009 21.0759 59.7405L23.277 59.5149C21.1947 59.7285 21.0819 59.7393 21.0759 59.7395L21.0798 59.719C21.082 59.7067 21.0855 59.6891 21.0895 59.6663C21.0979 59.6197 21.1097 59.5507 21.1257 59.4622C21.1577 59.2849 21.2049 59.0258 21.2663 58.6946C21.3892 58.0318 21.5693 57.0784 21.7995 55.9095C22.2596 53.5736 22.9216 50.3655 23.7302 46.8841C24.5372 43.4091 25.4987 39.6237 26.5593 36.1448C27.6019 32.725 28.8074 29.3723 30.152 26.885L30.4792 26.305C31.2642 24.965 32.2028 23.7338 33.2536 22.6663C34.4542 21.4467 35.7779 20.4639 37.1501 19.7757C38.5225 19.0874 39.9167 18.7065 41.2517 18.6546Z" fill="url(#paint6_linear_198_1605)"/>
</mask>
<g mask="url(#mask0_198_1605)">
<path d="M31.1753 59.1592C26.4756 56.015 24.1976 54.4093 19.4817 53.3124V67.564L31.1753 59.1592Z" fill="#683A1D" stroke="white" stroke-width="2" stroke-linecap="round"/>
<path d="M36.7061 39.0001C38.1875 39.2355 41.6017 40.6893 43.407 44.6213" stroke="#CB641A" stroke-width="2.5" stroke-linecap="round"/>
<path d="M42.2942 35.0001C43.7308 35.4316 46.9198 37.3292 48.1827 41.4674" stroke="#CB641A" stroke-width="2.5" stroke-linecap="round"/>
<path d="M35.5469 45.0001C36.9555 45.5158 40.0267 47.5986 41.0428 51.8042" stroke="#CB641A" stroke-width="2.5" stroke-linecap="round"/>
</g>
</g>
<defs>
<linearGradient id="paint0_linear_198_1605" x1="36" y1="0" x2="36" y2="72" gradientUnits="userSpaceOnUse">
<stop stop-color="white"/>
<stop offset="1" stop-color="#BCFF9D"/>
</linearGradient>
<linearGradient id="paint1_linear_198_1605" x1="39.5004" y1="9.47241" x2="39.5004" y2="29.7558" gradientUnits="userSpaceOnUse">
<stop stop-color="#3AB119"/>
<stop offset="1" stop-color="#C6E74E"/>
</linearGradient>
<linearGradient id="paint2_linear_198_1605" x1="48.0233" y1="17.4861" x2="48.0233" y2="29.5686" gradientUnits="userSpaceOnUse">
<stop stop-color="#3AB119"/>
<stop offset="1" stop-color="#C6E74E"/>
</linearGradient>
<linearGradient id="paint3_linear_198_1605" x1="44.5408" y1="8.8407" x2="44.5408" y2="32.7994" gradientUnits="userSpaceOnUse">
<stop stop-color="#3AB119"/>
<stop offset="0.605769" stop-color="#B4ED4A"/>
</linearGradient>
<linearGradient id="paint4_linear_198_1605" x1="48.5467" y1="28.0445" x2="47.8052" y2="47.1802" gradientUnits="userSpaceOnUse">
<stop stop-color="#FF7B00"/>
<stop offset="1" stop-color="#FFE53A"/>
</linearGradient>
<linearGradient id="paint5_linear_198_1605" x1="33.9998" y1="21.4998" x2="34.9999" y2="59.9998" gradientUnits="userSpaceOnUse">
<stop stop-color="#FF7B00"/>
<stop offset="1" stop-color="#FFE53A"/>
</linearGradient>
<linearGradient id="paint6_linear_198_1605" x1="33.9998" y1="21.4998" x2="34.9999" y2="59.9998" gradientUnits="userSpaceOnUse">
<stop stop-color="#FF7B00"/>
<stop offset="1" stop-color="#FFE53A"/>
</linearGradient>
<clipPath id="clip0_198_1605">
<rect width="72" height="72" fill="white"/>
</clipPath>
</defs>
</svg>
